#Comment line ignore any data following # character 
#Hierarchical Translation and Rotation (.htr) file 
[Header]	
#Header keywords are followed by a single value 
FileType HTR		#Single word string
DataType HTRS		#Translation followed by rotation and scale data
FileVersion 1		#integer
NumSegments 25		#integer
NumFrames 4		#integer
DataFrameRate 30		#integer, data frame rate in this file
EulerRotationOrder ZYX
CalibrationUnits mm
RotationUnits Degrees
GlobalAxisofGravity Y
BoneLengthAxis Y
ScaleFactor 1.00
[SegmentNames&Hierarchy]
#CHILD	PARENT
BN_Tick_Root GLOBAL
BN_Torso BN_Tick_Root
BN_L_Leg_Front01 BN_Torso
BN_L_Leg_Rear01 BN_Torso
BN_MetalTop BN_Torso
BN_Neck BN_Torso
BN_R_Leg_Front01 BN_Torso
BN_R_Leg_Rear01 BN_Torso
BN_Sack BN_Torso
BN_L_Leg_Front02 BN_L_Leg_Front01
BN_L_Leg_Front03 BN_L_Leg_Front02
BN_L_Leg_Rear02 BN_L_Leg_Rear01
BN_L_Leg_Rear03 BN_L_Leg_Rear02
BN_Head BN_Neck
BN_Needle BN_Head
BN_R_Leg_Front02 BN_R_Leg_Front01
BN_R_Leg_Front03 BN_R_Leg_Front02
BN_R_Leg_Rear02 BN_R_Leg_Rear01
BN_R_Leg_Rear03 BN_R_Leg_Rear02
BN_SackDef01 BN_Sack
BN_SackDef02 BN_Sack
BN_SackDef03 BN_Sack
BN_SackDef04 BN_Sack
BN_SackDef05 BN_Sack
BN_SackDef06 BN_Sack
[BasePosition]
#SegmentName Tx, Ty, Tz, Rx, Ry, Rz, BoneLength
BN_Tick_Root 0.000000 0.000000 0.000000 -90.000000 0.000000 0.000000 10.000000 
BN_Torso 0.000000 0.000000 0.000000 0.000000 0.000000 0.000000 10.000000 
BN_L_Leg_Front01 0.000000 0.000000 0.000000 0.000000 0.000000 0.000000 10.000000 
BN_L_Leg_Rear01 0.000000 0.000000 0.000000 0.000000 0.000000 0.000000 10.000000 
BN_MetalTop 0.000000 0.000000 0.000000 0.000000 0.000000 0.000000 10.000000 
BN_Neck 0.000000 0.000000 0.000000 0.000000 0.000000 0.000000 10.000000 
BN_R_Leg_Front01 0.000000 0.000000 0.000000 0.000000 0.000000 0.000000 10.000000 
BN_R_Leg_Rear01 0.000000 0.000000 0.000000 0.000000 0.000000 0.000000 10.000000 
BN_Sack 0.000000 0.000000 0.000000 0.000000 0.000000 0.000000 10.000000 
BN_L_Leg_Front02 0.000000 0.000000 0.000000 0.000000 0.000000 0.000000 10.000000 
BN_L_Leg_Front03 0.000000 0.000000 0.000000 0.000000 0.000000 0.000000 10.000000 
BN_L_Leg_Rear02 0.000000 0.000000 0.000000 0.000000 0.000000 0.000000 10.000000 
BN_L_Leg_Rear03 0.000000 0.000000 0.000000 0.000000 0.000000 0.000000 10.000000 
BN_Head 0.000000 0.000000 0.000000 0.000000 0.000000 0.000000 10.000000 
BN_Needle 0.000000 0.000000 0.000000 0.000000 0.000000 0.000000 10.000000 
BN_R_Leg_Front02 0.000000 0.000000 0.000000 0.000000 0.000000 0.000000 10.000000 
BN_R_Leg_Front03 0.000000 0.000000 0.000000 0.000000 0.000000 0.000000 10.000000 
BN_R_Leg_Rear02 0.000000 0.000000 0.000000 0.000000 0.000000 0.000000 10.000000 
BN_R_Leg_Rear03 0.000000 0.000000 0.000000 0.000000 0.000000 0.000000 10.000000 
BN_SackDef01 0.000000 0.000000 0.000000 0.000000 0.000000 0.000000 10.000000 
BN_SackDef02 0.000000 0.000000 0.000000 0.000000 0.000000 0.000000 10.000000 
BN_SackDef03 0.000000 0.000000 0.000000 0.000000 0.000000 0.000000 10.000000 
BN_SackDef04 0.000000 0.000000 0.000000 0.000000 0.000000 0.000000 10.000000 
BN_SackDef05 0.000000 0.000000 0.000000 0.000000 0.000000 0.000000 10.000000 
BN_SackDef06 0.000000 0.000000 0.000000 0.000000 0.000000 0.000000 10.000000 
#Beginning of Data. Separated by tabs
#Fr	Tx	Ty	Tz	Rx	Ry	Rz	SF
[BN_Tick_Root]
95 615.904236 2308.219971 825.641724 0.000000 -0.000000 8.919706 2527.627441
96 616.673462 2305.461426 841.048950 0.000000 -0.000000 8.827773 2530.375732
97 617.251892 2301.906250 854.606323 0.000000 -0.000000 8.566829 2531.822510
98 617.683167 2297.731689 866.420898 0.000000 -0.000000 8.305880 2532.150879
[BN_Torso]
95 27.840395 -96.974602 160.839767 72.572052 0.546715 12.550205 189.864655
96 44.646011 -127.591133 143.744843 74.638702 0.727294 21.121058 197.320404
97 64.884407 -158.540604 131.196564 76.797897 0.790958 30.624216 215.772202
98 32.833378 -184.722305 123.444069 78.983246 -0.555867 19.999958 224.585846
[BN_L_Leg_Front01]
95 -68.477791 10.734189 -26.804373 -13.393547 81.564507 -89.171524 74.316254
96 -68.477791 10.734189 -26.804373 5.972709 81.802429 -76.505424 74.316254
97 -68.477791 10.734189 -26.804373 77.160126 81.307915 -15.029679 74.316254
98 -68.477791 10.734189 -26.804373 91.123192 83.601158 1.171803 74.316254
[BN_L_Leg_Rear01]
95 -72.133743 -73.994843 -18.268616 144.935913 43.216927 -51.259720 104.939293
96 -72.133743 -73.994843 -18.268616 153.349701 45.241520 -53.526390 104.939293
97 -72.133743 -73.994843 -18.268616 169.448181 51.937626 -49.034840 104.939293
98 -72.133743 -73.994843 -18.268616 161.764023 49.407948 -46.287094 104.939293
[BN_MetalTop]
95 0.000008 13.737477 26.403606 89.584961 -25.021990 -88.644363 29.763546
96 0.000008 13.737477 26.403606 89.635475 -16.049461 -88.520645 29.763546
97 0.000008 13.737477 26.403606 89.682961 -11.975159 -88.473732 29.763546
98 0.000008 13.737477 26.403606 89.691566 -12.019728 -88.522072 29.763546
[BN_Neck]
95 0.000014 95.233284 10.002091 -95.251068 -55.230324 95.890244 95.757088
96 0.000014 95.233284 10.002091 -96.257935 -51.566319 97.277634 95.757088
97 0.000014 95.233284 10.002091 -97.003082 -48.097782 98.468536 95.757088
98 0.000014 95.233284 10.002091 -97.651520 -45.038490 99.514938 95.757088
[BN_R_Leg_Front01]
95 68.477768 10.734107 -26.804314 63.248325 44.363827 -99.782394 74.316193
96 68.477768 10.734107 -26.804314 73.156036 43.264523 -102.106316 74.316193
97 68.477768 10.734107 -26.804314 84.455765 47.632339 -103.128090 74.316193
98 68.477768 10.734107 -26.804314 73.853027 48.182880 -100.036659 74.316193
[BN_R_Leg_Rear01]
95 72.133751 -73.994873 -18.268644 -48.047703 12.087152 -46.370331 104.939331
96 72.133751 -73.994873 -18.268644 -41.815956 4.766260 -49.825455 104.939331
97 72.133751 -73.994873 -18.268644 -33.420338 -1.077725 -54.950928 104.939331
98 72.133751 -73.994873 -18.268644 -41.314430 6.400959 -50.005772 104.939331
[BN_Sack]
95 -0.000000 -78.024918 33.657791 78.912895 -6.584501 -85.316658 84.974907
96 -0.000000 -78.024918 33.657791 79.094391 -6.621230 -85.280563 84.974907
97 -0.000000 -78.024918 33.657791 79.395660 -5.235744 -85.502731 84.974907
98 -0.000000 -78.024918 33.657791 79.769165 -2.766227 -85.922935 84.974907
[BN_L_Leg_Front02]
95 142.805023 -0.000015 -0.000104 -178.776108 0.573029 41.898056 142.805023
96 142.805023 -0.000015 -0.000104 -172.727966 0.703315 66.373955 142.805023
97 142.805023 -0.000015 -0.000104 -3.522268 0.846175 97.757225 142.805023
98 142.805023 -0.000015 -0.000104 -174.978683 0.716790 62.838848 142.805023
[BN_L_Leg_Front03]
95 124.143021 -0.000045 0.000007 0.352815 0.002270 -179.670288 124.143021
96 124.143021 -0.000045 0.000007 0.352815 0.002270 -179.670288 124.143021
97 124.143021 -0.000045 0.000007 0.352815 0.002270 -179.670288 124.143021
98 124.143021 -0.000045 0.000007 0.352815 0.002270 -179.670288 124.143021
[BN_L_Leg_Rear02]
95 139.939041 0.000075 -0.000022 -1.122572 -0.007650 -99.832054 139.939041
96 139.939041 0.000075 -0.000022 -0.910403 -0.007057 -102.496994 139.939041
97 139.939041 0.000075 -0.000022 -0.738370 -0.002705 -105.839149 139.939041
98 139.939041 0.000075 -0.000022 -36.119053 -0.240461 -88.736397 139.939041
[BN_L_Leg_Rear03]
95 142.839615 0.000179 -0.000060 0.001658 -0.001661 -179.892853 142.839615
96 142.839615 0.000179 -0.000060 0.001658 -0.001661 -179.892853 142.839615
97 142.839615 0.000179 -0.000060 0.001658 -0.001661 -179.892853 142.839615
98 142.839615 0.000179 -0.000060 0.001658 -0.001661 -179.892853 142.839615
[BN_Head]
95 57.062447 -0.000030 0.000000 -0.208595 -2.759285 9.533159 57.062447
96 57.062447 -0.000030 0.000000 -0.294921 -3.703627 12.968746 57.062447
97 57.062447 -0.000030 0.000000 -0.373465 -4.632349 16.211866 57.062447
98 57.062447 -0.000030 0.000000 -0.478681 -5.516897 19.066523 57.062447
[BN_Needle]
95 33.915276 69.677666 -0.000005 0.000003 0.000030 87.896805 77.493378
96 33.915276 69.677666 -0.000004 0.000003 0.000030 87.896805 77.493378
97 33.915276 69.677666 -0.000004 0.000003 0.000030 87.896805 77.493378
98 33.915276 69.677666 -0.000003 0.000003 0.000030 87.896805 77.493378
[BN_R_Leg_Front02]
95 142.804947 -0.000060 0.000060 126.788704 0.095565 -74.263824 142.804947
96 142.804947 -0.000060 0.000060 141.430588 0.263407 -73.797577 142.804947
97 142.804947 -0.000060 0.000060 172.155228 0.696553 -66.973145 142.804947
98 142.804947 -0.000060 0.000060 176.240707 0.707437 -59.390656 142.804947
[BN_R_Leg_Front03]
95 124.143005 -0.000060 -0.000156 -0.354441 0.002271 179.671906 124.143005
96 124.143005 -0.000060 -0.000156 -0.354441 0.002271 179.671906 124.143005
97 124.143005 -0.000060 -0.000156 -0.354441 0.002271 179.671906 124.143005
98 124.143005 -0.000060 -0.000156 -0.354441 0.002271 179.671906 124.143005
[BN_R_Leg_Rear02]
95 139.939011 -0.000149 0.000015 -0.064402 -0.232480 -99.752388 139.939011
96 139.939011 -0.000149 0.000015 -0.048581 -0.233900 -104.107834 139.939011
97 139.939011 -0.000149 0.000015 -0.030697 -0.239155 -110.837372 139.939011
98 139.939011 -0.000149 0.000015 -0.038415 -0.238037 -107.131119 139.939011
[BN_R_Leg_Rear03]
95 142.839417 0.000075 0.000119 0.002273 -0.000586 118.938812 142.839417
96 142.839417 0.000075 0.000119 0.002248 -0.000676 123.452309 142.839417
97 142.839417 0.000075 0.000119 0.002207 -0.000800 129.851059 142.839417
98 142.839417 0.000075 0.000119 0.002230 -0.000733 126.413742 142.839417
[BN_SackDef01]
95 249.782272 -3.760844 42.949425 -128.408218 -44.374973 -11.740845 253.475800
96 249.782272 -3.760844 42.949425 -128.408218 -44.374973 -11.740845 253.475800
97 249.782272 -3.760844 42.949425 -128.408218 -44.374973 -11.740845 253.475800
98 249.782272 -3.760844 42.949425 -128.408218 -44.374973 -11.740845 253.475800
[BN_SackDef02]
95 138.789795 -62.131748 45.674385 32.077126 -27.375721 -88.781525 158.773758
96 138.789795 -62.131748 45.674385 32.077126 -27.375721 -88.781525 158.773758
97 138.789795 -62.131748 45.674385 32.077126 -27.375721 -88.781525 158.773758
98 138.789795 -62.131748 45.674385 32.077126 -27.375721 -88.781525 158.773758
[BN_SackDef03]
95 249.782272 -3.760785 -42.949661 18.144459 44.375008 -11.740894 253.475845
96 249.782272 -3.760785 -42.949661 18.144459 44.375008 -11.740894 253.475845
97 249.782272 -3.760785 -42.949661 18.144459 44.375008 -11.740894 253.475845
98 249.782272 -3.760785 -42.949661 18.144459 44.375008 -11.740894 253.475845
[BN_SackDef04]
95 138.789780 -62.131645 -45.674473 146.059982 27.375723 -88.781555 158.773743
96 138.789780 -62.131645 -45.674473 146.059982 27.375723 -88.781555 158.773743
97 138.789780 -62.131645 -45.674473 146.059982 27.375723 -88.781555 158.773743
98 138.789780 -62.131645 -45.674473 146.059982 27.375723 -88.781555 158.773743
[BN_SackDef05]
95 118.790161 46.167137 -63.831196 0.155741 51.314110 90.605110 142.537460
96 118.790161 46.167137 -63.831196 0.155741 51.314110 90.605110 142.537460
97 118.790161 46.167137 -63.831196 0.155741 51.314110 90.605110 142.537460
98 118.790161 46.167137 -63.831196 0.155741 51.314110 90.605110 142.537460
[BN_SackDef06]
95 118.790207 46.167194 63.831219 152.058487 -51.314072 90.605019 142.537537
96 118.790207 46.167194 63.831219 152.058487 -51.314072 90.605019 142.537537
97 118.790207 46.167194 63.831219 152.058487 -51.314072 90.605019 142.537537
98 118.790207 46.167194 63.831219 152.058487 -51.314072 90.605019 142.537537
